<svg viewBox="0 0 500 500" xmlns="http://www.w3.org/2000/svg" xmlns:xlink="http://www.w3.org/1999/xlink" overflow="hidden"><g id="freepik--background-simple--inject-2"><path d="M421.8 275.49C425.91 248.49 422.97 220.69 415.8 194.49 409.36 170.98 401.24 146.84 382.34 130.33 359.44 110.33 330.85 107.72 301.83 111.11 244.4 117.8 228 93.2 185.51 94.69 143.02 96.18 105.75 114.07 93.82 150.6 81.89 187.13 100.53 225.15 91.58 246.76 82.63 268.37 57.29 290 72.2 321.31 87.11 352.62 119.91 377.22 196 383.18 272.09 389.14 338.38 392.13 381.62 352.62 405 331.21 417.42 304.23 421.8 275.49Z" fill="#FFC000"/><path d="M421.8 275.49C425.91 248.49 422.97 220.69 415.8 194.49 409.36 170.98 401.24 146.84 382.34 130.33 359.44 110.33 330.85 107.72 301.83 111.11 244.4 117.8 228 93.2 185.51 94.69 143.02 96.18 105.75 114.07 93.82 150.6 81.89 187.13 100.53 225.15 91.58 246.76 82.63 268.37 57.29 290 72.2 321.31 87.11 352.62 119.91 377.22 196 383.18 272.09 389.14 338.38 392.13 381.62 352.62 405 331.21 417.42 304.23 421.8 275.49Z" fill="#FFFFFF" opacity="0.7"/></g><g id="freepik--character-3--inject-2"><ellipse cx="252.79" cy="391.38" rx="45.66" ry="11.18" fill="#FFC000"/><ellipse cx="252.79" cy="391.38" rx="45.66" ry="11.18" fill="#FFFFFF" opacity="0.5"/><path d="M249.33 162.85C249.33 162.85 247.65 159.78 246.42 160.85 245.19 161.92 247.19 169.75 248.72 169.29 250.25 168.83 249.33 162.85 249.33 162.85Z" stroke="#263238" stroke-linecap="round" stroke-linejoin="round" fill="#FFFFFF"/><path d="M218.21 269.13C227.594 273.076 237.5 275.639 247.62 276.74 263.87 278.38 282.8 266.66 282.8 266.66 282.8 266.66 263.87 237.45 263.67 236.83 263.47 236.21 240.84 235.39 240.84 235.39Z" stroke="#263238" stroke-linecap="round" stroke-linejoin="round" fill="#263238"/><path d="M232 244.81C232 244.81 224.45 276.96 224.45 288.42 224.45 299.88 224.45 309.1 223.89 318.33 223.33 327.56 220.26 345.44 221.38 354.67 222.5 363.9 223.89 382.07 223.89 382.07 223.89 382.07 214.11 389.89 214.11 392.69 214.11 395.49 219.98 394.69 225.01 391.57 230.04 388.45 231.44 386.26 231.44 386.26L232.56 387.38 234.24 385.7 234.8 379.55 240.39 329.23 248.22 279.23 261.91 339.33 273.91 380.99 276.71 382.11 277.27 384.62 280.06 386.3 282.86 386.58 285.65 389.09C285.65 389.09 294.6 391.89 296.28 391.33 297.96 390.77 297.95 388.54 293.48 385.18 289.01 381.82 281.48 379.87 281.48 379.87 281.48 379.87 280.64 351.63 278.69 335.14 276.74 318.65 274.21 304.67 274.21 292.93 274.21 281.19 270.31 247 270.31 247Z" stroke="#263238" stroke-linecap="round" stroke-linejoin="round" fill="#263238"/><path d="M251.3 181.91 230.43 189.91 232.1 247.31C232.1 247.31 239.19 250.85 251.67 250.67 264.15 250.49 272.67 249.97 272.67 249.97L277.62 187.3 257.49 182.64C257.49 182.64 253.72 181.35 251.3 181.91Z" stroke="#263238" stroke-linecap="round" stroke-linejoin="round" fill="#FFFFFF"/><path d="M251.49 191.97 253.72 197.75 247.39 242.66 250.74 250.12 256.33 241.55 255.59 198.12 258.2 192.34 255.21 186.38 251.49 191.97Z" stroke="#263238" stroke-linecap="round" stroke-linejoin="round" fill="#263238"/><path d="M251.33 179.28 247.95 183.28 248.57 195.72 255.63 190.04 261.31 198.33C261.31 198.33 263.61 187.43 262.69 184.05 261.77 180.67 258.55 178.52 256.86 178.83 255.17 179.14 251.33 179.28 251.33 179.28Z" stroke="#263238" stroke-linecap="round" stroke-linejoin="round" fill="#FFFFFF"/><path d="M250.41 173.45C250.41 173.45 250.41 173.69 250.47 174.1 250.66 176.15 251.25 182.45 251.64 184.5 252.1 186.96 255.32 189.72 256.55 189.26 257.78 188.8 260.7 185.11 261 183.89 261.3 182.67 262.54 176.98 262.54 176.98 262.54 176.98 258.54 178.82 256.86 178.82 255.18 178.82 250.41 173.45 250.41 173.45Z" stroke="#263238" stroke-linecap="round" stroke-linejoin="round" fill="#FFFFFF"/><path d="M266.48 165.43C266.48 165.43 268.98 162.97 269.84 164.35 270.7 165.73 266.56 172.66 265.22 171.78 263.88 170.9 266.48 165.43 266.48 165.43Z" stroke="#263238" stroke-linecap="round" stroke-linejoin="round" fill="#FFFFFF"/><path d="M255 152.11C255 152.11 251.17 153.75 250.34 155.67 249.51 157.59 248.15 167.67 249.52 172.37 250.89 177.07 254.18 181.13 256.09 181.37 258 181.61 262.94 179.18 264.31 174.8 265.68 170.42 267.04 165.8 267.31 162.8 267.58 159.8 269.77 161.43 266.76 157.05 263.75 152.67 257.43 150.47 255 152.11Z" stroke="#263238" stroke-linecap="round" stroke-linejoin="round" fill="#FFFFFF"/><path d="M256.2 165C256.2 165.75 255.93 166.36 255.56 166.37 255.19 166.38 254.86 165.78 254.84 165.03 254.82 164.28 255.11 163.67 255.49 163.66 255.87 163.65 256.18 164.22 256.2 165Z" fill="#263238"/><path d="M261.53 165.33C261.53 166.08 261.26 166.7 260.89 166.71 260.52 166.72 260.19 166.12 260.17 165.37 260.15 164.62 260.44 164 260.81 163.99 261.18 163.98 261.51 164.58 261.53 165.33Z" fill="#263238"/><path d="M253.46 161.58C254.187 160.508 255.58 160.115 256.76 160.65" stroke="#263238" stroke-width="0.5" stroke-linecap="round" stroke-linejoin="round" fill="none"/><path d="M259.7 161.18C259.7 161.18 261.44 160.34 263.38 162.6" stroke="#263238" stroke-width="0.5" stroke-linecap="round" stroke-linejoin="round" fill="none"/><path d="M255.13 172.38C256.435 173 257.91 173.166 259.32 172.85" stroke="#263238" stroke-width="0.5" stroke-linecap="round" stroke-linejoin="round" fill="none"/><path d="M259.09 163.07C259.09 163.07 260.02 169.56 259.32 169.91 258.62 170.26 257.12 169.44 257.12 169.44" stroke="#263238" stroke-width="0.5" stroke-linecap="round" stroke-linejoin="round" fill="none"/><path d="M250.87 149C250.87 149 245.65 150.07 245.8 152.83 245.95 155.59 247.8 160.51 247.8 160.51 247.8 160.51 249.64 161.58 249.33 162.81 249.02 164.04 249.18 166.65 250.26 165.73 251.34 164.81 250.72 161.43 251.18 160.97 252.25 160.3 252.934 159.159 253.02 157.9 253.02 156.06 251.94 154.37 252.25 153.9 252.56 153.43 257.93 154.05 260.54 155.28 263.15 156.51 266.68 158.5 265.76 160.5 265.162 161.477 265.289 162.732 266.07 163.57 266.07 163.57 264.99 166.49 265.76 167.26 266.53 168.03 267.45 164.65 267.45 164.65 268.508 164.436 269.313 163.571 269.45 162.5 270.128 160.051 270.335 157.496 270.06 154.97 269.6 152.52 264.53 148.37 259.01 148.22 253.49 148.07 250.87 149 250.87 149Z" stroke="#263238" stroke-linecap="round" stroke-linejoin="round" fill="#263238"/><path d="M251.48 151.65C251.48 151.65 257.78 157.17 263.15 159.32 268.52 161.47 275.43 157.48 275.74 154.41 276.05 151.34 270.83 146.89 269.45 146.73 268.07 146.57 270.21 144.73 265.15 143.2 260.09 141.67 248.87 142.59 248.26 145.66 247.65 148.73 251.48 151.65 251.48 151.65Z" stroke="#263238" stroke-linecap="round" stroke-linejoin="round" fill="#263238"/><path d="M248.69 182.84C248.69 182.84 247.95 218.25 243.69 230.36 239.43 242.47 234 254.59 229.34 258.88 224.68 263.17 216.48 276.77 216.48 276.77 216.48 276.77 213.68 271.36 213.68 269.69 213.68 268.02 226.68 256.08 227.85 254.96 229.02 253.84 229.53 248.07 229.53 239.5 229.53 230.93 227.48 190.67 227.48 189.92 227.48 189.17 245.15 181.91 248.69 182.84Z" stroke="#263238" stroke-linecap="round" stroke-linejoin="round" fill="#FFC000"/><path d="M227.45 189.92 227.04 190.54C224.492 195.256 222.231 200.121 220.27 205.11 216.81 213.53 207.69 227.48 209.65 230.27 211.61 233.06 216.65 234.74 219.71 231.39 222.77 228.04 230.33 213.78 230.33 213.78 230.33 213.78 229.31 192.9 227.45 189.92Z" stroke="#263238" stroke-linecap="round" stroke-linejoin="round" fill="#FFC000"/><path d="M262.3 183.21C262.3 183.21 262.67 207.63 263.41 224.4 264.15 241.17 266.41 247.51 268.26 250.68 270.11 253.85 283.73 274.91 283.73 274.91 283.73 274.91 286.9 268.38 286.52 265.77 286.14 263.16 276.27 246.58 276.27 245.65 276.27 244.72 280.56 189.74 279.81 188.25 279.06 186.76 262.3 183.21 262.3 183.21Z" stroke="#263238" stroke-linecap="round" stroke-linejoin="round" fill="#FFC000"/><path d="M244.78 185.08 239.37 198.5 243.66 202.78 239 208 241.61 227.94" stroke="#263238" stroke-linecap="round" stroke-linejoin="round" fill="none"/><path d="M264.9 185.26 269.94 197.19 264.35 200.54 269.94 209.31 264.53 223.47" stroke="#263238" stroke-linecap="round" stroke-linejoin="round" fill="none"/><path d="M232.01 256.27 232.95 258.71 226.31 263.83 224.22 259.09 232.01 256.27Z" stroke="#263238" stroke-linecap="round" stroke-linejoin="round" fill="#FFFFFF"/><path d="M218.87 226.36 232 256.27 222.22 263.82C222.22 263.82 208 233.9 208 231.39 208 228.88 211.08 223.84 212.47 223" stroke="#263238" stroke-linecap="round" stroke-linejoin="round" fill="#FFC000"/><path d="M232.95 258.71 235.23 259.85 228.96 268.39 226.31 263.83 232.95 258.71Z" stroke="#263238" stroke-linecap="round" stroke-linejoin="round" fill="#FFFFFF"/><path d="M267.74 256.7 266.56 259.04 272.66 264.8 275.21 260.29 267.74 256.7Z" stroke="#263238" stroke-linecap="round" stroke-linejoin="round" fill="#FFFFFF"/><path d="M279.81 188.25C279.81 188.25 282.69 191.32 283.07 194.16 283.45 197 293.51 230.42 293.89 231.94 294.27 233.46 290.47 235.94 286.67 236.5 282.87 237.06 278.13 222.26 278.13 222.26Z" stroke="#263238" stroke-linecap="round" stroke-linejoin="round" fill="#FFC000"/><path d="M283.8 228.25 267.74 256.7 276.74 265.19C276.74 265.19 293.91 236.85 294.16 234.35 294.41 231.85 291.86 226.53 290.55 225.56" stroke="#263238" stroke-linecap="round" stroke-linejoin="round" fill="#FFC000"/><path d="M266.56 259.04 264.18 259.94 269.56 269.07 272.66 264.8 266.56 259.04Z" stroke="#263238" stroke-linecap="round" stroke-linejoin="round" fill="#FFFFFF"/></g></svg>