<svg viewBox="0 0 50 50" xmlns="http://www.w3.org/2000/svg" xmlns:xlink="http://www.w3.org/1999/xlink" overflow="hidden"><path d="M35.18 38.963C35.201 38.8817 35.2114 38.798 35.211 38.714L35.211 29.983C35.211 28.515 33.995 27.322 32.5 27.322L32.309 27.322C32.029 27.322 31.757 27.363 31.501 27.44 31.1427 26.3099 30.0915 25.5439 28.906 25.549L28.715 25.549C28.44 25.549 28.174 25.589 27.923 25.663 27.5817 24.5074 26.5179 23.7163 25.313 23.722L25.122 23.722C24.884 23.722 24.652 23.751 24.432 23.808L24.432 19.35C24.432 17.882 23.215 16.689 21.72 16.689L21.529 16.689C20.034 16.689 18.818 17.882 18.818 19.35L18.818 31.689 17.706 30.609C16.685 29.615 14.91 29.618 13.894 30.606L13.756 30.739C13.237 31.243 12.951 31.915 12.951 32.632 12.951 33.349 13.237 34.021 13.713 34.481L18.964 40.244C19.41 40.763 20.064 41.06 20.756 41.06L32.843 41.06C34.0443 41.0631 35.0534 40.1576 35.18 38.963ZM20.46 38.916 15.147 33.088C14.8946 32.8469 14.8855 32.4468 15.1266 32.1945 15.1326 32.1882 15.1388 32.182 15.145 32.176L15.284 32.042C15.419 31.91 15.601 31.838 15.797 31.838 15.993 31.838 16.175 31.91 16.311 32.043L19.121 34.771C19.5202 35.1543 20.1545 35.1414 20.5378 34.7423 20.7158 34.5568 20.8158 34.3101 20.817 34.053L20.817 19.35C20.817 18.986 21.136 18.689 21.528 18.689L21.719 18.689C22.112 18.689 22.431 18.986 22.431 19.35L22.431 26.128C22.4336 26.6803 22.8834 27.1259 23.4356 27.1233 23.9242 27.1211 24.3395 26.7662 24.418 26.284 24.469 25.964 24.772 25.721 25.121 25.721L25.312 25.721C25.704 25.721 26.023 26.018 26.023 26.382L26.023 27.955C26.025 28.5073 26.4744 28.9533 27.0267 28.9513 27.5155 28.9495 27.9314 28.5945 28.01 28.112 28.062 27.791 28.364 27.548 28.714 27.548L28.905 27.548C29.297 27.548 29.616 27.845 29.616 28.21L29.616 29.728C29.618 30.2803 30.0674 30.7263 30.6197 30.7243 31.1085 30.7225 31.5244 30.3675 31.603 29.885 31.655 29.564 31.957 29.321 32.307 29.321L32.5 29.321C32.892 29.321 33.211 29.618 33.211 29.982L33.211 38.552C33.1986 38.6159 33.1923 38.6809 33.192 38.746 33.192 38.918 33.035 39.058 32.841 39.058L20.755 39.058C20.6401 39.0585 20.5313 39.0061 20.46 38.916ZM11.211 18.313C11.211 18.8653 11.6587 19.313 12.211 19.313L15.558 19.313C16.1103 19.313 16.558 18.8653 16.558 18.313 16.558 17.7607 16.1103 17.313 15.558 17.313L12.211 17.313C11.6587 17.313 11.211 17.7607 11.211 18.313ZM22.658 13.308 22.658 10.059C22.658 9.50671 22.2103 9.059 21.658 9.059 21.1057 9.059 20.658 9.50671 20.658 10.059L20.658 13.308C20.658 13.8603 21.1057 14.308 21.658 14.308 22.2103 14.308 22.658 13.8603 22.658 13.308ZM17.932 16.013 17.952 16.013C18.5043 16.0132 18.9522 15.5657 18.9524 15.0134 18.9525 14.684 18.7904 14.3756 18.519 14.189L16.262 11.999C15.8692 11.6108 15.2361 11.6144 14.8478 12.0072 14.4596 12.4 14.4633 13.0332 14.856 13.4214 14.8603 13.4257 14.8646 13.4298 14.869 13.434L17.235 15.731C17.43 15.919 17.681 16.013 17.932 16.013ZM26.675 18.313C26.675 18.8653 27.1227 19.313 27.675 19.313L31.022 19.313C31.5743 19.313 32.022 18.8653 32.022 18.313 32.022 17.7607 31.5743 17.313 31.022 17.313L27.675 17.313C27.1227 17.313 26.675 17.7607 26.675 18.313ZM26.971 11.998 24.605 14.295C24.2085 14.6797 24.1988 15.313 24.5835 15.7095 24.9682 16.106 25.6015 16.1157 25.998 15.731L28.365 13.433C28.7613 13.0481 28.7704 12.4148 28.3855 12.0185 28.0006 11.6222 27.3673 11.6131 26.971 11.998Z" fill="#FFC000"/></svg>