<svg viewBox="0 0 500 500" xmlns="http://www.w3.org/2000/svg" xmlns:xlink="http://www.w3.org/1999/xlink" overflow="hidden"><g id="freepik--Manual--inject-208"><path d="M327.35 407.96 92.15 423.47 92.15 67.81 327.35 55.26 327.35 407.96Z" fill="#FFC000"/><rect x="123.26" y="81.07" width="250.98" height="358.62" fill="#FFC000"/><rect x="123.26" y="81.07" width="250.98" height="358.62" opacity="0.2"/><rect x="123.26" y="81.07" width="7.83" height="358.62" opacity="0.1"/><path d="M123.25 81.07 95.08 69.06 321.88 63.8 368.14 81.07 123.25 81.07Z" fill="#FFFFFF"/><path d="M97.25 70.15 112.92 69.55 128.58 69.03 159.91 68.11 191.25 67.36 206.92 67.05 222.6 66.82 206.93 67.42 191.27 67.94 159.93 68.86 128.59 69.61 112.92 69.92 97.25 70.15Z" fill="#EBEBEB"/><path d="M111.8 71.65 139.06 70.86 166.34 70.19 220.88 68.86 275.42 67.78 302.69 67.24 329.97 66.82 302.7 67.61 275.43 68.28 220.89 69.61 166.35 70.69 139.07 71.23 111.8 71.65Z" fill="#EBEBEB"/><path d="M111.21 75.8C121.39 75.44 131.58 75.19 141.76 74.95L172.31 74.38 202.87 74 218.15 73.91 233.43 73.91 218.16 74.38 202.88 74.75 172.33 75.33 141.77 75.67C131.58 75.79 121.4 75.85 111.21 75.8Z" fill="#EBEBEB"/><path d="M116.69 78.8 136.66 78.41 156.64 78.13 196.58 77.72 236.53 77.55 256.51 77.54 276.48 77.64 256.51 78.03 236.54 78.31 196.59 78.72 156.64 78.89 136.67 78.9 116.69 78.8Z" fill="#EBEBEB"/><path d="M249.81 75C258.65 74.79 267.5 74.7 276.34 74.62L302.87 74.5 329.39 74.61 342.66 74.75 355.92 75 342.66 75.24 329.39 75.38 302.87 75.5 276.34 75.38C267.5 75.25 258.65 75.16 249.81 75Z" fill="#EBEBEB"/><path d="M242 71.07C249.94 70.73 257.89 70.51 265.83 70.31L289.66 69.82 313.49 69.56 325.41 69.56 337.33 69.62 325.43 70 313.51 70.32 289.68 70.81 265.85 71.07C257.91 71.12 250 71.15 242 71.07Z" fill="#EBEBEB"/><path d="M321.88 63.8C325.81 65.05 329.7 66.4 333.58 67.8 337.46 69.2 341.32 70.61 345.19 72.01 349.06 73.41 352.88 74.92 356.71 76.43L362.44 78.72C364.34 79.52 366.25 80.29 368.14 81.11 366.14 80.5 364.23 79.83 362.27 79.18L356.44 77.18C352.56 75.81 348.7 74.37 344.84 72.97 340.98 71.57 337.14 70.06 333.31 68.54 329.48 67.02 325.67 65.44 321.88 63.8Z" fill="#EBEBEB"/><path d="M92.15 423.47 123.25 439.69 123.25 81.07 92.15 67.81 92.15 423.47Z" fill="#FFC000"/><path d="M92.15 423.47 123.25 439.69 123.25 81.07 92.15 67.81 92.15 423.47Z" opacity="0.4"/><path d="M186 140.92C185.988 140.788 186.086 140.672 186.218 140.66 186.232 140.659 186.246 140.659 186.26 140.66 186.398 140.665 186.505 140.782 186.5 140.92 186.5 140.92 186.5 140.92 186.5 140.92L186.5 154.54C186.511 154.678 186.409 154.798 186.271 154.809 186.267 154.81 186.264 154.81 186.26 154.81 186.128 154.822 186.011 154.725 185.999 154.593 185.997 154.575 185.998 154.558 186 154.54Z" fill="#FFFFFF"/><path d="M192.53 141.71 192.53 154.54C192.541 154.678 192.439 154.798 192.301 154.809 192.297 154.81 192.294 154.81 192.29 154.81 192.147 154.8 192.035 154.683 192.03 154.54L192.03 141C192.033 140.916 192.069 140.837 192.13 140.78 192.232 140.688 192.388 140.688 192.49 140.78L201.83 153.78 201.83 141C201.84 140.861 201.951 140.75 202.09 140.74 202.228 140.745 202.335 140.862 202.33 141 202.33 141 202.33 141 202.33 141L202.33 154.52C202.341 154.658 202.239 154.778 202.101 154.789 202.097 154.79 202.094 154.79 202.09 154.79 201.985 154.79 201.89 154.727 201.85 154.63 201.85 154.63 201.85 154.63 201.85 154.63Z" fill="#FFFFFF"/><path d="M206.9 152.4C206.991 152.319 207.129 152.319 207.22 152.4 208.603 153.562 210.326 154.243 212.13 154.34 213.321 154.368 214.491 154.018 215.47 153.34 216.271 152.814 216.773 151.937 216.82 150.98 216.797 150.081 216.309 149.259 215.53 148.81 214.475 148.186 213.305 147.781 212.09 147.62L212.09 147.62C210.905 147.452 209.765 147.048 208.74 146.43 207.895 145.94 207.365 145.047 207.34 144.07 207.34 142.07 209.54 140.51 212.13 140.51 213.722 140.605 215.247 141.184 216.5 142.17 216.603 142.234 216.636 142.369 216.572 142.473 216.568 142.479 216.564 142.484 216.56 142.49 216.489 142.589 216.353 142.615 216.25 142.55 215.07 141.616 213.632 141.065 212.13 140.97 211.029 140.957 209.951 141.282 209.04 141.9 208.305 142.384 207.848 143.191 207.81 144.07 207.826 144.9 208.278 145.66 209 146.07 209.972 146.651 211.049 147.035 212.17 147.2L212.17 147.2C213.447 147.388 214.675 147.82 215.79 148.47 216.7 149 217.265 149.967 217.28 151.02 217.28 153.2 214.92 154.86 212.13 154.86 210.227 154.781 208.404 154.078 206.94 152.86 206.807 152.805 206.744 152.653 206.799 152.521 206.819 152.471 206.855 152.429 206.9 152.4Z" fill="#FFFFFF"/><path d="M224.62 141.17 220 141.17C219.862 141.176 219.746 141.068 219.74 140.93 219.74 140.927 219.74 140.923 219.74 140.92 219.74 140.776 219.856 140.66 220 140.66L229.84 140.66C229.978 140.654 230.094 140.762 230.1 140.9 230.1 140.906 230.1 140.913 230.1 140.92 230.106 141.052 230.004 141.165 229.871 141.171 229.861 141.171 229.85 141.171 229.84 141.17L225.19 141.17 225.19 154.54C225.185 154.683 225.073 154.8 224.93 154.81 224.792 154.816 224.675 154.709 224.669 154.571 224.669 154.561 224.669 154.55 224.67 154.54Z" fill="#FFFFFF"/><path d="M241.17 151.76C241.179 150.918 240.813 150.115 240.17 149.57 239.67 149.157 239.097 148.841 238.48 148.64 238.307 148.585 238.13 148.544 237.95 148.52L234.11 148.52 234.11 154.52C234.121 154.658 234.019 154.778 233.881 154.789 233.877 154.79 233.874 154.79 233.87 154.79 233.725 154.785 233.61 154.665 233.61 154.52L233.61 140.92C233.61 140.776 233.726 140.66 233.87 140.66L238 140.66C240.163 140.692 241.908 142.437 241.94 144.6 241.951 146.348 240.792 147.887 239.11 148.36 239.362 148.462 239.606 148.582 239.84 148.72 240.956 149.308 241.661 150.459 241.68 151.72 241.636 152.42 241.739 153.121 241.98 153.78 242.17 154.06 242.27 154.02 242.29 154.02L242.29 154.02C242.421 153.998 242.548 154.075 242.59 154.2 242.633 154.32 242.57 154.451 242.45 154.494 242.444 154.496 242.437 154.498 242.43 154.5 242.43 154.5 242.35 154.5 242.25 154.5 241.926 154.467 241.646 154.26 241.52 153.96 241.226 153.266 241.106 152.511 241.17 151.76ZM238 148 238 148C239.872 147.994 241.386 146.472 241.38 144.6 241.38 142.71 239.85 141.176 237.96 141.17L234.06 141.17 234.06 148Z" fill="#FFFFFF"/><path d="M245.31 140.92C245.304 140.782 245.412 140.666 245.55 140.66 245.556 140.66 245.563 140.66 245.57 140.66 245.708 140.665 245.815 140.782 245.81 140.92 245.81 140.92 245.81 140.92 245.81 140.92L245.81 149.13C245.685 151.977 247.891 154.387 250.738 154.512 253.585 154.638 255.995 152.431 256.12 149.584 256.127 149.433 256.127 149.281 256.12 149.13L256.12 140.92C256.12 140.776 256.236 140.66 256.38 140.66 256.519 140.67 256.63 140.781 256.64 140.92L256.64 149.13C256.771 152.259 254.342 154.902 251.213 155.033 248.084 155.165 245.441 152.735 245.31 149.606 245.303 149.447 245.303 149.289 245.31 149.13Z" fill="#FFFFFF"/><path d="M268.44 140.46C270.087 140.463 271.688 141.004 273 142 273.117 142.08 273.152 142.238 273.08 142.36 272.982 142.465 272.817 142.471 272.712 142.373 272.708 142.368 272.704 142.364 272.7 142.36 271.469 141.418 269.96 140.912 268.41 140.92 264.737 140.92 261.76 143.897 261.76 147.57 261.76 151.243 264.737 154.22 268.41 154.22 269.953 154.232 271.456 153.729 272.68 152.79 272.787 152.691 272.953 152.691 273.06 152.79 273.145 152.891 273.132 153.043 273.031 153.128 273.021 153.136 273.011 153.144 273 153.15 271.68 154.154 270.069 154.701 268.41 154.71 264.447 154.858 261.115 151.766 260.967 147.803 260.819 143.84 263.912 140.508 267.874 140.36 268.053 140.353 268.231 140.353 268.41 140.36Z" fill="#FFFFFF"/><path d="M281.15 141.17 276.48 141.17C276.342 141.176 276.226 141.068 276.22 140.93 276.22 140.927 276.22 140.923 276.22 140.92 276.22 140.776 276.336 140.66 276.48 140.66L286.32 140.66C286.464 140.654 286.584 140.766 286.59 140.91 286.59 140.913 286.59 140.917 286.59 140.92 286.59 141.058 286.479 141.17 286.341 141.171 286.334 141.171 286.327 141.171 286.32 141.17L281.68 141.17 281.68 154.54C281.67 154.685 281.555 154.8 281.41 154.81 281.272 154.816 281.155 154.709 281.149 154.571 281.149 154.561 281.149 154.55 281.15 154.54Z" fill="#FFFFFF"/><path d="M290.54 140.92C290.528 140.788 290.625 140.671 290.757 140.659 290.775 140.657 290.792 140.658 290.81 140.66 290.948 140.665 291.055 140.782 291.05 140.92 291.05 140.92 291.05 140.92 291.05 140.92L291.05 154.54C291.061 154.678 290.959 154.798 290.821 154.809 290.817 154.81 290.814 154.81 290.81 154.81 290.672 154.822 290.552 154.719 290.54 154.582 290.539 154.568 290.539 154.554 290.54 154.54Z" fill="#FFFFFF"/><path d="M302.83 140.46C306.866 140.223 310.33 143.302 310.567 147.337 310.805 151.373 307.726 154.837 303.69 155.075 299.654 155.312 296.19 152.233 295.953 148.197 295.944 148.048 295.94 147.899 295.94 147.75 295.845 143.84 298.921 140.585 302.83 140.46ZM302.83 154.52C306.567 154.757 309.789 151.921 310.026 148.184 310.264 144.447 307.427 141.225 303.69 140.987 299.953 140.75 296.731 143.587 296.494 147.324 296.485 147.466 296.48 147.608 296.48 147.75 296.406 151.357 299.226 154.363 302.83 154.52Z" fill="#FFFFFF"/><path d="M313.72 141.71 313.72 154.54C313.731 154.678 313.629 154.798 313.491 154.809 313.487 154.81 313.484 154.81 313.48 154.81 313.333 154.805 313.215 154.687 313.21 154.54L313.21 141C313.212 140.914 313.253 140.833 313.32 140.78 313.422 140.688 313.577 140.688 313.68 140.78L323.01 153.78 323.01 141C323.024 140.859 323.139 140.749 323.28 140.74 323.418 140.745 323.525 140.862 323.52 141 323.52 141 323.52 141 323.52 141L323.52 154.52C323.531 154.658 323.429 154.778 323.291 154.789 323.287 154.79 323.284 154.79 323.28 154.79 323.175 154.79 323.08 154.727 323.04 154.63 323.04 154.63 323.04 154.63 323.04 154.63Z" fill="#FFFFFF"/><path d="M206.32 162.67 206.32 183.17C206.273 184.22 205.421 185.055 204.37 185.08 203.321 185.086 202.466 184.239 202.46 183.19 202.46 183.183 202.46 183.177 202.46 183.17L202.46 168.54 197.46 175.54C197.105 176.049 196.521 176.349 195.9 176.34L195.83 176.34C195.198 176.352 194.6 176.053 194.23 175.54L189.23 168.54 189.23 183.17C189.23 184.236 188.366 185.1 187.3 185.1 186.234 185.1 185.37 184.236 185.37 183.17L185.37 162.67C185.381 161.62 186.23 160.771 187.28 160.76L187.39 160.76C187.999 160.766 188.568 161.064 188.92 161.56L195.83 171.15 202.75 161.56C203.106 161.052 203.69 160.753 204.31 160.76L204.31 160.76C205.384 160.754 206.272 161.597 206.32 162.67Z" fill="#FFFFFF"/><path d="M224.87 179.35 216.43 179.35 214.72 183.87C214.423 184.602 213.71 185.081 212.92 185.08 212.696 185.084 212.473 185.05 212.26 184.98 211.273 184.585 210.768 183.487 211.11 182.48L218.79 162C219.093 161.254 219.825 160.772 220.63 160.79 221.438 160.761 222.177 161.246 222.47 162L230.15 182.47C230.511 183.485 230.002 184.604 229 185 228.788 185.074 228.564 185.107 228.34 185.1 227.554 185.109 226.847 184.625 226.57 183.89ZM223.45 175.53 220.63 168.06 217.82 175.53Z" fill="#FFFFFF"/><path d="M238.73 183.17C238.806 184.217 238.019 185.127 236.973 185.203 235.926 185.279 235.016 184.492 234.94 183.445 234.933 183.354 234.933 183.262 234.94 183.17L234.94 163C234.89 161.963 235.69 161.082 236.727 161.032 237.367 161.001 237.979 161.298 238.35 161.82L249.57 177.35 249.57 163C249.575 161.964 250.414 161.125 251.45 161.12 252.491 161.125 253.338 161.959 253.36 163L253.36 183.18C253.355 184.233 252.503 185.085 251.45 185.09 250.895 185.082 250.371 184.83 250.02 184.4 249.952 184.34 249.894 184.269 249.85 184.19L238.73 168.76Z" fill="#FFFFFF"/><path d="M270 185.08C264.477 185.08 260 180.603 260 175.08L260 162.67C259.983 161.632 260.811 160.777 261.85 160.76 261.87 160.76 261.89 160.76 261.91 160.76 262.981 160.727 263.876 161.568 263.909 162.639 263.91 162.649 263.91 162.66 263.91 162.67L263.91 175C263.773 178.416 266.43 181.296 269.846 181.434 273.262 181.571 276.143 178.913 276.28 175.497 276.287 175.332 276.287 175.166 276.28 175L276.28 162.67C276.285 161.61 277.15 160.754 278.21 160.76 278.213 160.76 278.217 160.76 278.22 160.76 279.258 160.743 280.113 161.571 280.13 162.61 280.13 162.63 280.13 162.65 280.13 162.67L280.13 175C280.175 180.523 275.734 185.036 270.211 185.081 270.141 185.081 270.07 185.081 270 185.08Z" fill="#FFFFFF"/><path d="M298.9 179.35 290.46 179.35 288.76 183.87C288.448 184.595 287.739 185.069 286.95 185.08 286.726 185.084 286.503 185.05 286.29 184.98 285.303 184.585 284.798 183.487 285.14 182.48L292.82 162C293.123 161.254 293.855 160.772 294.66 160.79 295.468 160.761 296.207 161.246 296.5 162L304.18 182.47C304.538 183.494 304.014 184.616 303 185 302.788 185.072 302.564 185.106 302.34 185.1 301.552 185.11 300.841 184.627 300.56 183.89ZM297.48 175.53 294.66 168.06 291.85 175.53Z" fill="#FFFFFF"/><path d="M308.94 183.17 308.94 162.67C308.934 161.621 309.781 160.766 310.83 160.76 310.837 160.76 310.843 160.76 310.85 160.76 311.914 160.754 312.784 161.606 312.8 162.67L312.8 181.23 322.21 181.23C323.273 181.307 324.073 182.231 323.996 183.294 323.927 184.25 323.166 185.011 322.21 185.08L310.85 185.08C309.801 185.086 308.946 184.239 308.94 183.19 308.94 183.183 308.94 183.177 308.94 183.17Z" fill="#FFFFFF"/><rect x="185.4" y="192.61" width="138.72" height="2" fill="#FFFFFF"/><path d="M293.88 240.13C289.398 244.364 282.905 245.693 277.12 243.56L230.32 287.73C232.936 296.321 228.093 305.405 219.502 308.021 216.115 309.053 212.484 308.951 209.16 307.73L218.83 298.59 215.74 291.59 208.89 288.09 199.21 297.23C196.598 288.632 201.451 279.545 210.049 276.934 213.436 275.905 217.067 276.009 220.39 277.23L267.17 233C264.543 224.419 269.369 215.332 277.951 212.705 281.353 211.663 285.003 211.767 288.34 213L278.65 222.13 281.76 229.13 288.6 232.64 298.29 223.49C300.113 229.424 298.402 235.878 293.88 240.13Z" opacity="0.1"/><rect x="247.11" y="242.82" width="5.97" height="32.57" opacity="0.1" transform="matrix(-0.686453 -0.727174 0.727174 -0.686453 233.35 618.84)"/><g opacity="0.1"><path d="M280.22 283.92C280.22 290.321 285.409 295.51 291.81 295.51 298.211 295.51 303.4 290.321 303.4 283.92 303.4 277.519 298.211 272.33 291.81 272.33 291.807 272.33 291.803 272.33 291.8 272.33 285.403 272.336 280.22 277.523 280.22 283.92ZM282.69 283.92C282.668 278.883 286.733 274.782 291.77 274.76 296.807 274.738 300.908 278.803 300.93 283.84 300.952 288.877 296.887 292.978 291.85 293 291.833 293 291.817 293 291.8 293 286.78 293 282.707 288.94 282.69 283.92ZM280.22 283.92C280.22 290.321 285.409 295.51 291.81 295.51 298.211 295.51 303.4 290.321 303.4 283.92 303.4 277.519 298.211 272.33 291.81 272.33 291.807 272.33 291.803 272.33 291.8 272.33 285.403 272.336 280.22 277.523 280.22 283.92ZM282.69 283.92C282.668 278.883 286.733 274.782 291.77 274.76 296.807 274.738 300.908 278.803 300.93 283.84 300.952 288.877 296.887 292.978 291.85 293 291.833 293 291.817 293 291.8 293 286.78 293 282.707 288.94 282.69 283.92ZM272.28 283.92C272.28 294.706 281.024 303.45 291.81 303.45 302.596 303.45 311.34 294.706 311.34 283.92 311.34 273.134 302.596 264.39 291.81 264.39 291.807 264.39 291.803 264.39 291.8 264.39 281.018 264.396 272.28 273.138 272.28 283.92ZM279.11 283.92C279.11 276.906 284.796 271.22 291.81 271.22 298.824 271.22 304.51 276.906 304.51 283.92 304.51 290.934 298.824 296.62 291.81 296.62 291.807 296.62 291.803 296.62 291.8 296.62 284.794 296.604 279.121 290.926 279.11 283.92ZM280.22 283.92C280.22 290.321 285.409 295.51 291.81 295.51 298.211 295.51 303.4 290.321 303.4 283.92 303.4 277.519 298.211 272.33 291.81 272.33 291.807 272.33 291.803 272.33 291.8 272.33 285.403 272.336 280.22 277.523 280.22 283.92ZM282.69 283.92C282.668 278.883 286.733 274.782 291.77 274.76 296.807 274.738 300.908 278.803 300.93 283.84 300.952 288.877 296.887 292.978 291.85 293 291.833 293 291.817 293 291.8 293 286.78 293 282.707 288.94 282.69 283.92Z"/><path d="M289.51 264.74 293.99 264.74 293.54 260.28 289.96 260.28 289.51 264.74Z"/><path d="M299.41 266.17 303.28 268.4 305.13 264.31 302.03 262.52 299.41 266.17Z"/><path d="M307.27 272.35 309.5 276.22 313.14 273.6 311.35 270.5 307.27 272.35Z"/><path d="M310.98 281.63 310.98 286.1 315.44 285.65 315.44 282.07 310.98 281.63Z"/><path d="M309.56 291.52 307.32 295.39 311.41 297.24 313.2 294.14 309.56 291.52Z"/><path d="M303.38 299.38 299.51 301.61 302.13 305.26 305.23 303.47 303.38 299.38Z"/><path d="M294.1 303.09 289.63 303.09 290.07 307.56 293.65 307.56 294.1 303.09Z"/><path d="M284.21 301.67 280.33 299.44 278.49 303.52 281.59 305.31 284.21 301.67Z"/><path d="M276.35 295.49 274.11 291.62 270.47 294.24 272.26 297.34 276.35 295.49Z"/><path d="M272.63 286.21 272.63 281.74 268.17 282.19 268.17 285.77 272.63 286.21Z"/><path d="M274.05 276.32 276.29 272.44 272.2 270.6 270.41 273.7 274.05 276.32Z"/><path d="M280.23 268.46 284.11 266.22 281.49 262.58 278.39 264.37 280.23 268.46Z"/></g><g opacity="0.1"><path d="M213.85 234.51C217.271 234.827 220.3 232.31 220.617 228.89 220.933 225.469 218.417 222.44 214.996 222.123 211.577 221.806 208.548 224.321 208.23 227.74 207.907 231.154 210.412 234.184 213.827 234.508 213.835 234.509 213.842 234.509 213.85 234.51ZM208.99 227.81C209.269 224.807 211.929 222.599 214.931 222.878 217.934 223.156 220.142 225.816 219.863 228.819 219.585 231.822 216.925 234.03 213.922 233.751 213.918 233.751 213.914 233.75 213.91 233.75 210.914 233.465 208.716 230.806 209 227.81ZM213.85 234.51C217.271 234.827 220.3 232.31 220.617 228.89 220.933 225.469 218.417 222.44 214.996 222.123 211.577 221.806 208.548 224.321 208.23 227.74 207.907 231.154 210.412 234.184 213.827 234.508 213.835 234.509 213.842 234.509 213.85 234.51ZM208.99 227.81C209.269 224.807 211.929 222.599 214.931 222.878 217.934 223.156 220.142 225.816 219.863 228.819 219.585 231.822 216.925 234.03 213.922 233.751 213.918 233.751 213.914 233.75 213.91 233.75 210.914 233.465 208.716 230.806 209 227.81ZM213.85 234.51C217.271 234.827 220.3 232.31 220.617 228.89 220.933 225.469 218.417 222.44 214.996 222.123 211.577 221.806 208.548 224.321 208.23 227.74 207.907 231.154 210.412 234.184 213.827 234.508 213.835 234.509 213.842 234.509 213.85 234.51ZM208.99 227.81C209.269 224.807 211.929 222.599 214.931 222.878 217.934 223.156 220.142 225.816 219.863 228.819 219.585 231.822 216.925 234.03 213.922 233.751 213.918 233.751 213.914 233.75 213.91 233.75 210.914 233.465 208.716 230.806 209 227.81ZM213.21 241.37C220.419 242.041 226.807 236.74 227.478 229.531 228.149 222.321 222.848 215.933 215.639 215.263 208.429 214.592 202.041 219.893 201.371 227.102 201.37 227.105 201.37 227.107 201.37 227.11 200.704 234.317 206.004 240.7 213.21 241.37ZM207.27 227.65C207.641 223.702 211.142 220.802 215.09 221.173 219.038 221.543 221.938 225.044 221.567 228.992 221.197 232.939 217.697 235.839 213.75 235.47 209.806 235.09 206.911 231.596 207.27 227.65ZM208.27 227.74C207.947 231.16 210.458 234.194 213.878 234.517 217.298 234.839 220.332 232.328 220.655 228.908 220.978 225.488 218.467 222.454 215.047 222.132 215.041 222.131 215.036 222.131 215.03 222.13 211.611 221.795 208.568 224.294 208.233 227.713 208.232 227.722 208.231 227.731 208.23 227.74ZM209.03 227.81C209.309 224.807 211.969 222.599 214.971 222.878 217.974 223.156 220.182 225.816 219.903 228.819 219.625 231.822 216.965 234.03 213.962 233.751 213.958 233.751 213.954 233.75 213.95 233.75 210.952 233.487 208.734 230.843 208.997 227.845 208.998 227.833 208.999 227.822 209 227.81ZM213.89 234.51C217.311 234.827 220.34 232.31 220.657 228.89 220.973 225.469 218.457 222.44 215.036 222.123 211.617 221.806 208.588 224.321 208.27 227.74 207.945 231.149 210.441 234.178 213.85 234.51ZM209.03 227.81C209.309 224.807 211.969 222.599 214.971 222.878 217.974 223.156 220.182 225.816 219.903 228.819 219.625 231.822 216.965 234.03 213.962 233.751 213.958 233.751 213.954 233.75 213.95 233.75 210.952 233.487 208.734 230.843 208.997 227.845 208.998 227.833 208.999 227.822 209 227.81ZM213.89 234.51C217.311 234.827 220.34 232.31 220.657 228.89 220.973 225.469 218.457 222.44 215.036 222.123 211.617 221.806 208.588 224.321 208.27 227.74 207.945 231.149 210.441 234.178 213.85 234.51ZM209.03 227.81C209.309 224.807 211.969 222.599 214.971 222.878 217.974 223.156 220.182 225.816 219.903 228.819 219.625 231.822 216.965 234.03 213.962 233.751 213.958 233.751 213.954 233.75 213.95 233.75 210.952 233.487 208.734 230.843 208.997 227.845 208.998 227.833 208.999 227.822 209 227.81Z"/><path d="M213.07 215.58 218.09 216.04 218.15 212.47 213.68 212.05 213.07 215.58Z"/><path d="M222.47 218.16 225.69 222.03 228.25 219.54 225.39 216.09 222.47 218.16Z"/><path d="M227.29 226.62 226.82 231.64 230.4 231.69 230.81 227.23 227.29 226.62Z"/><path d="M224.71 236.01 220.83 239.23 223.32 241.8 226.77 238.94 224.71 236.01Z"/><path d="M216.25 240.83 211.23 240.37 211.18 243.94 215.64 244.36 216.25 240.83Z"/><path d="M206.85 238.25 203.63 234.38 201.07 236.87 203.93 240.32 206.85 238.25Z"/><path d="M202.03 229.79 202.5 224.77 198.92 224.72 198.51 229.18 202.03 229.79Z"/><path d="M204.61 220.4 208.49 217.18 206 214.61 202.55 217.47 204.61 220.4Z"/></g><g opacity="0.1"><path d="M230.12 242.19C231.066 246.534 235.354 249.289 239.698 248.343 244.043 247.397 246.797 243.109 245.851 238.764 244.906 234.423 240.622 231.669 236.28 232.61 231.935 233.552 229.176 237.838 230.118 242.183 230.119 242.185 230.119 242.188 230.12 242.19ZM234.32 241.27C233.881 239.24 235.17 237.239 237.2 236.8 239.23 236.361 241.231 237.65 241.67 239.68 242.109 241.71 240.82 243.711 238.79 244.15 236.767 244.593 234.768 243.313 234.324 241.29 234.323 241.283 234.321 241.277 234.32 241.27Z"/><path d="M234.84 233.26 237.87 232.6 237.23 230.5 234.54 231.08 234.84 233.26Z"/><path d="M240.82 233.03 243.43 234.71 244.47 232.77 242.15 231.28 240.82 233.03Z"/><path d="M245.21 237.09 245.87 240.12 247.98 239.49 247.39 236.8 245.21 237.09Z"/><path d="M245.45 243.08 243.77 245.68 245.71 246.72 247.2 244.41 245.45 243.08Z"/><path d="M241.38 247.47 238.35 248.13 238.99 250.23 241.68 249.65 241.38 247.47Z"/><path d="M235.4 247.7 232.79 246.03 231.75 247.96 234.07 249.45 235.4 247.7Z"/><path d="M231.01 243.64 230.35 240.61 228.24 241.24 228.83 243.94 231.01 243.64Z"/><path d="M230.77 237.66 232.45 235.05 230.51 234.01 229.02 236.33 230.77 237.66Z"/><path d="M239.38 238.31 236.81 238.19 235.42 240.35 236.6 242.64 239.17 242.76 240.56 240.6ZM238.16 241.31C237.734 241.428 237.293 241.179 237.175 240.754 237.169 240.733 237.164 240.711 237.16 240.69 237.063 240.251 237.341 239.817 237.78 239.72 238.219 239.623 238.653 239.901 238.75 240.34 238.822 240.756 238.567 241.158 238.16 241.27Z"/></g><path d="M301.06 75 327.35 75C330.848 76.7578 334.193 78.8049 337.35 81.12L337.35 130.83 325.35 122.59 312.8 130.83 312.8 81.07Z" fill="#37474F"/><path d="M187.59 74.65 212.51 74.27C212.51 74.27 208.75 59.86 206.86 56.35 204.97 52.84 193 42.83 193 42.83L191.58 51 172.32 48.26C172.32 48.26 180.16 55.26 182.72 57.99 184.74 60.11 187.59 74.65 187.59 74.65Z" fill="#FFC000"/><path d="M153.27 70.73 174.9 70.19 173.05 52.18 163.77 59.31 152.82 53.6 153.27 70.73Z" fill="#263238"/></g></svg>